<?xml version="1.0" standalone="no"?>
<!DOCTYPE svg PUBLIC "-//W3C//DTD SVG 20010904//EN"
 "http://www.w3.org/TR/2001/REC-SVG-20010904/DTD/svg10.dtd">
<svg version="1.0" xmlns="http://www.w3.org/2000/svg"
 width="1024.000000pt" height="1024.000000pt" viewBox="0 0 1024.000000 1024.000000"
 preserveAspectRatio="xMidYMid meet">
<metadata>
Created by potrace 1.14, written by Peter Selinger 2001-2017
</metadata>
<g transform="translate(0.000000,1024.000000) scale(0.100000,-0.100000)"
fill="#000000" stroke="none">
<path d="M1122 8495 c-111 -26 -226 -108 -285 -202 -15 -23 -36 -70 -48 -105
l-22 -63 0 -2635 0 -2635 25 -72 c45 -127 150 -237 268 -278 54 -19 73 -22
185 -30 50 -3 115 -8 145 -10 30 -2 98 -7 150 -10 52 -4 111 -8 130 -10 19 -2
73 -6 120 -10 47 -4 96 -8 110 -10 14 -3 54 -7 90 -11 36 -3 76 -7 90 -9 14
-1 50 -6 80 -9 30 -4 66 -9 80 -11 25 -4 136 -19 220 -30 25 -4 56 -8 70 -11
14 -2 41 -7 60 -10 66 -10 265 -44 290 -49 14 -3 36 -7 50 -10 64 -12 223 -46
305 -65 50 -12 99 -23 109 -26 11 -2 95 -24 188 -49 321 -86 646 -203 912
-328 150 -70 217 -81 292 -48 53 24 117 89 131 134 7 25 10 849 9 2839 -1
2607 -3 2806 -18 2839 -27 58 -95 106 -299 211 -332 172 -796 341 -1189 434
-36 9 -72 17 -80 19 -105 27 -249 59 -320 70 -19 3 -55 10 -80 15 -47 10 -376
65 -458 76 -26 3 -55 8 -66 10 -10 2 -44 6 -75 9 -31 4 -64 9 -74 12 -11 3
-40 6 -65 8 -26 2 -67 6 -92 9 -75 10 -140 16 -219 22 -42 3 -92 7 -111 9 -19
2 -77 6 -128 10 -51 3 -107 8 -125 10 -89 12 -306 12 -355 0z"/>
<path d="M8887 8504 c-1 -1 -54 -5 -117 -9 -169 -11 -242 -17 -380 -30 -25 -2
-74 -7 -110 -10 -36 -4 -76 -8 -90 -10 -14 -2 -52 -7 -85 -10 -81 -7 -195 -22
-340 -45 -162 -25 -185 -29 -220 -35 -32 -6 -118 -21 -175 -30 -273 -45 -717
-159 -1030 -264 -344 -116 -823 -343 -923 -439 -59 -56 -56 122 -55 -2911 0
-1936 4 -2794 11 -2818 12 -40 71 -104 119 -130 22 -12 56 -17 103 -18 65 0
79 4 200 61 407 192 1031 384 1540 474 28 5 88 16 135 25 47 8 103 18 125 21
22 2 51 7 65 9 14 2 43 6 65 10 23 3 52 7 65 10 13 3 40 7 60 9 37 6 186 25
233 32 15 2 44 5 65 8 20 3 66 8 102 11 36 3 81 8 100 10 19 2 69 7 110 10 41
3 95 8 120 10 25 3 81 7 125 10 44 3 105 7 135 10 30 2 100 7 155 10 55 3 118
10 140 15 68 17 148 63 198 113 63 64 91 108 118 187 l22 65 0 2620 c-1 1441
-4 2638 -8 2660 -32 177 -181 326 -366 364 -44 9 -202 13 -212 5z"/>
</g>
</svg>
